<?xml version="1.0" standalone="no"?>
<?xml-stylesheet type="text/css" href="handson.css" ?> 
<svg xmlns="http://www.w3.org/2000/svg" width="750" height="500" viewBox="0 0 750 500" xmlns:xlink="http://www.w3.org/1999/xlink" >

<defs>
<g id="jumper_body" stroke-width="1">
    <ellipse cx="350" cy="250" rx="35" ry="60" />
    <ellipse cx="350" cy="310" rx="20" ry="40"/>
</g>

<g id="jumper_head" stroke-width="1" fill="pink">
    <circle cx="350" cy="175" r="30" />
</g>
<g id="skies" stroke-width="1" fill="green">
    <polygon points="250, 350, 250, 330, 550, 330, 530, 350" />
</g>
  <!--<polyline stroke="#000" stroke-width="5" fill="none" points="15,470 112,35 450,355 220,370 500,50 725,490 "/>-->


<g id="montagne" stroke-width="1" stroke="#000" fill="grey">
  <polygon points="300 70, 600 600, 10 600" id="triangle" fill="grey"/>
  <polygon points="300 70, 357 170, 245 170" id="triangle_neige" fill="white"/>
</g>

<g id="gp_mont" stroke-width="1" stroke="#000" fill="grey">
  <use x="100" y="60" href="#montagne"/>
  <use x="" y="40" href="#montagne"/>
  <use x="210" y="10" href="#montagne"/>
  <use x="-270" y="120" href="#montagne"/>
  <use x="-150" y="80" href="#montagne"/>
  <use x="-150" y="80" href="#montagne"/>
  <use x="350" y="80" href="#montagne"/>
</g>



<g id="jumper" stroke-width="1" transform="scale(0.2) translate(-390, -425)" viewBox="0 0 10 0">
    <use xlink:href="#jumper_body" />
    <use xlink:href="#jumper_head" />
    <use xlink:href="#skies" />
</g>

<g id="rocket" stroke-width="1" fill="black">
    <rect x="70" y="160" width="100" height="30" />
    <polygon points="200 175, 170 190, 170 160" id="triangle" fill="black"/>
    <polygon points="90 190, 120 190, 97 200, 85 200" id="triangle_neige" fill="grey"/>
    <polygon points="90 160, 120 160, 97 150, 85 150" id="triangle_neige" fill="grey"/>
</g>

<g id="vent" stroke-width="1" fill="black">
    <line x="50" y="160" width="15" height="3" id="vent" fill="black"/>
</g>

<path id="path_tremplin" d="M 0.0 103.8 L 39.0 103.8 C 62.4 109.8 76.8 123.0 81.0 144.0 C 88.2 174.6 93.0 226.2 130.2 249.0 C 167.4 271.8 194.4 268.8 194.4 268.2 C 227.4 262.8 250.79999999999998 249.6 264.59999999999997 228.0 " />

<g id="tremplin" stroke-width="1" fill="gray">
<rect x="20" y="100" width="15" height="300" id="vent"/>
<rect x="60" y="120" width="15" height="280" id="vent"/>
<rect x="100" y="220" width="15" height="180" id="vent"/>
<rect x="140" y="260" width="15" height="140" id="vent"/>
<rect x="180" y="260" width="15" height="140" id="vent"/>
<rect x="220" y="260" width="15" height="140" id="vent"/>
<rect x="255" y="230" width="15" height="170" id="vent"/>
  <use xlink:href="#path_tremplin" stroke="#f56200" fill="none" stroke-width="30" />

</g>
</defs>
  <use xlink:href="#tremplin"/>

  <use xlink:href="#jumper" y="0">
  
  <animateMotion dur="2s" rotate="auto"  keyPoints="0;0.1 ; 0.2; 0.5; 0.9; 1" keyTimes="0; 0.35; 0.45; 0.6; 0.8; 1" calcMode="linear">
    <mpath xlink:href="#path_tremplin"/>
    
  </animateMotion>
  <animateTransform
    attributeName='transform'
    type="translate"
    from="250.79999999999998 249.6"
    to="500,100"
    begin="2s"
    dur="3s"
    repeatCount="indefinite"
    rotate="auto"
/>
  </use>


</svg>
